<svg width="145" height="32" viewBox="0 0 145 32" fill="none" xmlns="http://www.w3.org/2000/svg">
<path fill-rule="evenodd" clip-rule="evenodd" d="M16.5976 23.0376C16.0389 18.0811 16.8083 13.8197 18.8326 10.5031C18.6538 10.2818 18.4654 10.0634 18.2675 9.85057C14.0434 5.31114 10.1578 4.49404 7.19166 5.05863C6.11471 3.46117 5.2348 1.76515 4.56718 0C0.392762 1.20037 2.76777 3.26752 6.21184 6.26516L6.21185 6.26516C9.35324 8.99935 13.3841 12.5077 14.1456 16.8385C13.9348 15.6469 11.0486 10.523 3.12724 6.93966C-0.00489302 9.6463 -2.32286 16.515 4.01483 21.1623C6.21595 22.6465 7.87741 23.4794 9.3631 24.2242C12.2737 25.6834 14.5097 26.8043 18.807 31.8214L18.7144 31.6001C17.6369 28.8287 16.9265 25.9552 16.5976 23.0376ZM36.6931 7.97241C28.8931 10.7812 24.5317 17.2187 24.2252 18.3252C25.3157 14.3763 29.5479 11.0023 33.0012 8.2492C36.9392 5.10971 39.8642 2.77781 35.9619 1.32214C35.178 2.94033 34.1996 4.47848 33.0437 5.9098C30.2979 5.16363 26.556 5.67432 22.1627 9.64632C14.2318 16.8243 19.2636 30.7206 19.2636 30.7206C24.0439 25.9533 26.2952 25.0391 29.2533 23.8379C30.7208 23.2419 32.3624 22.5753 34.5731 21.3325C40.9746 17.3974 39.4197 10.7556 36.6931 7.97241ZM110.152 24.0687C110.97 24.5876 111.884 24.8471 112.893 24.8471C113.608 24.8471 114.214 24.7289 114.709 24.4925C115.211 24.2561 115.617 23.9592 115.929 23.6017C116.246 23.2385 116.491 22.8724 116.664 22.5034H116.819V24.6308H120.452V6.91962H116.776V13.5786H116.664C116.502 13.2212 116.266 12.858 115.955 12.489C115.649 12.1142 115.245 11.8029 114.744 11.555C114.248 11.3013 113.628 11.1745 112.885 11.1745C111.91 11.1745 111.014 11.4281 110.195 11.9355C109.382 12.4371 108.731 13.1952 108.241 14.2099C107.751 15.2189 107.505 16.4844 107.505 18.0064C107.505 19.4881 107.742 20.7392 108.215 21.7597C108.693 22.7744 109.339 23.5441 110.152 24.0687ZM115.565 21.4311C115.156 21.7539 114.655 21.9154 114.061 21.9154C113.455 21.9154 112.945 21.751 112.53 21.4224C112.121 21.088 111.806 20.6268 111.587 20.0387C111.374 19.4449 111.267 18.7617 111.267 17.9891C111.267 17.2223 111.374 16.5478 111.587 15.9655C111.801 15.3832 112.115 14.9277 112.53 14.5991C112.945 14.2705 113.455 14.1062 114.061 14.1062C114.655 14.1062 115.159 14.2647 115.574 14.5818C115.989 14.8989 116.306 15.3486 116.525 15.9309C116.744 16.5132 116.854 17.1993 116.854 17.9891C116.854 18.779 116.742 19.468 116.517 20.056C116.298 20.6441 115.981 21.1024 115.565 21.4311ZM55.6465 14.1148V11.3474H53.1472V8.16494H49.4632V11.3474H47.6471V14.1148H49.4632V21.0333C49.4574 21.9038 49.639 22.6245 50.008 23.1953C50.377 23.766 50.893 24.1869 51.556 24.4579C52.2248 24.7289 53.0031 24.847 53.891 24.8125C54.3695 24.7952 54.776 24.7462 55.1103 24.6654C55.4447 24.5905 55.7042 24.5242 55.8887 24.4665L55.3092 21.7251C55.217 21.7424 55.0844 21.7683 54.9114 21.8029C54.7385 21.8318 54.5655 21.8462 54.3926 21.8462C54.1446 21.8462 53.9256 21.8087 53.7353 21.7337C53.5508 21.6588 53.4067 21.5291 53.3029 21.3446C53.1991 21.1543 53.1472 20.8891 53.1472 20.549V14.1148H55.6465ZM57.3158 11.3474V24.6308H60.9998V17.1157C60.9998 16.5737 61.1209 16.0952 61.3631 15.6801C61.611 15.265 61.9454 14.9421 62.3662 14.7115C62.7929 14.4751 63.2772 14.3569 63.8191 14.3569C64.0728 14.3569 64.3524 14.3771 64.658 14.4175C64.9635 14.4578 65.2028 14.504 65.3758 14.5559V11.2869C65.2143 11.2465 65.027 11.2148 64.8136 11.1918C64.6003 11.1687 64.4014 11.1572 64.2169 11.1572C63.4732 11.1572 62.8159 11.3705 62.2452 11.7971C61.6744 12.218 61.2679 12.8407 61.0258 13.6651H60.8874V11.3474H57.3158ZM71.9852 24.8903C70.6188 24.8903 69.4427 24.6136 68.4568 24.0601C67.4767 23.5008 66.7214 22.711 66.191 21.6905C65.6606 20.6643 65.3954 19.4507 65.3954 18.0497C65.3954 16.6833 65.6606 15.4841 66.191 14.4521C66.7214 13.4201 67.468 12.6158 68.4309 12.0393C69.3995 11.4627 70.5352 11.1745 71.8382 11.1745C72.7145 11.1745 73.5303 11.3157 74.2856 11.5982C75.0466 11.875 75.7097 12.2929 76.2747 12.8522C76.8454 13.4114 77.2894 14.1148 77.6065 14.9623C77.9236 15.8041 78.0821 16.7899 78.0821 17.92V18.9318H69.0362V18.9404C69.0362 19.5977 69.1573 20.1656 69.3995 20.6441C69.6474 21.1226 69.9962 21.4916 70.4459 21.751C70.8956 22.0105 71.4289 22.1402 72.0458 22.1402C72.4551 22.1402 72.8298 22.0826 73.17 21.9672C73.5102 21.8519 73.8013 21.679 74.0435 21.4484C74.2856 21.2177 74.4701 20.9352 74.5969 20.6009L78.0043 20.8257C77.8313 21.6444 77.4767 22.3593 76.9406 22.9704C76.4101 23.5758 75.7241 24.0485 74.8823 24.3887C74.0463 24.7231 73.0806 24.8903 71.9852 24.8903ZM69.4081 15.3428C69.1847 15.7364 69.0619 16.1717 69.0397 16.6487H74.6142C74.6142 16.1183 74.4989 15.6484 74.2683 15.2391C74.0377 14.8297 73.7177 14.5097 73.3084 14.2791C72.9048 14.0427 72.4349 13.9245 71.8987 13.9245C71.3395 13.9245 70.8437 14.0543 70.4113 14.3137C69.9846 14.5674 69.6502 14.9104 69.4081 15.3428ZM82.2809 24.0601C83.2668 24.6136 84.4429 24.8903 85.8093 24.8903C86.9047 24.8903 87.8704 24.7231 88.7064 24.3887C89.5482 24.0485 90.2342 23.5758 90.7647 22.9704C91.3008 22.3593 91.6554 21.6444 91.8284 20.8257L88.421 20.6009C88.2942 20.9352 88.1097 21.2177 87.8676 21.4484C87.6254 21.679 87.3343 21.8519 86.9941 21.9672C86.6539 22.0826 86.2792 22.1402 85.8699 22.1402C85.253 22.1402 84.7197 22.0105 84.27 21.751C83.8203 21.4916 83.4715 21.1226 83.2235 20.6441C82.9814 20.1656 82.8603 19.5977 82.8603 18.9404V18.9318H91.9062V17.92C91.9062 16.7899 91.7477 15.8041 91.4306 14.9623C91.1135 14.1148 90.6695 13.4114 90.0988 12.8522C89.5337 12.2929 88.8707 11.875 88.1097 11.5982C87.3544 11.3157 86.5386 11.1745 85.6623 11.1745C84.3593 11.1745 83.2235 11.4627 82.255 12.0393C81.2921 12.6158 80.5455 13.4201 80.0151 14.4521C79.4847 15.4841 79.2195 16.6833 79.2195 18.0497C79.2195 19.4507 79.4847 20.6643 80.0151 21.6905C80.5455 22.711 81.3008 23.5008 82.2809 24.0601ZM82.8638 16.6487C82.886 16.1717 83.0088 15.7364 83.2322 15.3428C83.4743 14.9104 83.8087 14.5674 84.2354 14.3137C84.6678 14.0543 85.1636 13.9245 85.7228 13.9245C86.259 13.9245 86.7289 14.0427 87.1325 14.2791C87.5418 14.5097 87.8618 14.8297 88.0924 15.2391C88.323 15.6484 88.4383 16.1183 88.4383 16.6487H82.8638ZM97.2638 16.9514V24.6308H93.5798V11.3474H97.0909V13.691H97.2466C97.5406 12.9185 98.0335 12.3074 98.7254 11.8577C99.4172 11.4022 100.256 11.1745 101.242 11.1745C102.164 11.1745 102.969 11.3763 103.655 11.7798C104.341 12.1834 104.874 12.7599 105.255 13.5094C105.635 14.2532 105.825 15.141 105.825 16.173V24.6308H102.141V16.8303C102.147 16.0174 101.94 15.3832 101.519 14.9277C101.098 14.4665 100.518 14.2359 99.7804 14.2359C99.2846 14.2359 98.8464 14.3425 98.4659 14.5559C98.0912 14.7692 97.7971 15.0805 97.5838 15.4898C97.3763 15.8934 97.2696 16.3806 97.2638 16.9514ZM128.804 24.8903C127.437 24.8903 126.261 24.6136 125.275 24.0601C124.295 23.5008 123.54 22.711 123.009 21.6905C122.479 20.6643 122.214 19.4507 122.214 18.0497C122.214 16.6833 122.479 15.4841 123.009 14.4521C123.54 13.4201 124.286 12.6158 125.249 12.0393C126.218 11.4627 127.354 11.1745 128.657 11.1745C129.533 11.1745 130.349 11.3157 131.104 11.5982C131.865 11.875 132.528 12.2929 133.093 12.8522C133.664 13.4114 134.108 14.1148 134.425 14.9623C134.742 15.8041 134.901 16.7899 134.901 17.92V18.9318H125.855V18.9404C125.855 19.5977 125.976 20.1656 126.218 20.6441C126.466 21.1226 126.815 21.4916 127.264 21.751C127.714 22.0105 128.247 22.1402 128.864 22.1402C129.274 22.1402 129.648 22.0826 129.988 21.9672C130.329 21.8519 130.62 21.679 130.862 21.4484C131.104 21.2177 131.289 20.9352 131.415 20.6009L134.823 20.8257C134.65 21.6444 134.295 22.3593 133.759 22.9704C133.229 23.5758 132.543 24.0485 131.701 24.3887C130.865 24.7231 129.899 24.8903 128.804 24.8903ZM126.227 15.3428C126.003 15.7364 125.88 16.1717 125.858 16.6487H131.433C131.433 16.1183 131.317 15.6484 131.087 15.2391C130.856 14.8297 130.536 14.5097 130.127 14.2791C129.723 14.0427 129.253 13.9245 128.717 13.9245C128.158 13.9245 127.662 14.0543 127.23 14.3137C126.803 14.5674 126.469 14.9104 126.227 15.3428ZM140.146 11.3474H136.574V24.6308H140.258V17.1157C140.258 16.5737 140.379 16.0952 140.621 15.6801C140.869 15.265 141.204 14.9421 141.625 14.7115C142.051 14.4751 142.536 14.3569 143.077 14.3569C143.331 14.3569 143.611 14.3771 143.916 14.4175C144.222 14.4578 144.461 14.504 144.634 14.5559V11.2869C144.473 11.2465 144.285 11.2148 144.072 11.1918C143.859 11.1687 143.66 11.1572 143.475 11.1572C142.732 11.1572 142.074 11.3705 141.504 11.7971C140.933 12.218 140.526 12.8407 140.284 13.6651H140.146V11.3474Z" fill="url(#paint0_linear_1_302)"/>
<defs>
<linearGradient id="paint0_linear_1_302" x1="96.1406" y1="6.91962" x2="96.1406" y2="24.8903" gradientUnits="userSpaceOnUse">
<stop stop-color="#97EA97"/>
<stop offset="1" stop-color="#13CA57"/>
</linearGradient>
</defs>
</svg>
